<svg width="66" height="60" viewBox="0 0 66 60" fill="none" xmlns="http://www.w3.org/2000/svg">
<path d="M46.4054 12.6091C42.9177 13.4996 41.0964 14.7545 30.8659 23.255C24.3943 28.6387 19.9379 32.0389 18.3103 32.8484C15.7914 34.1033 15.7527 34.1033 8.1573 34.2247L0.484436 34.3866V41.0251V47.6636H8.35106C20.5579 47.6636 21.9142 47.1779 30.2071 40.0941C45.8241 26.6957 48.7305 25.2384 59.5035 25.2384H65.2V18.6404V12.0424L56.7909 12.0829C51.5594 12.0829 47.6067 12.2853 46.4054 12.6091Z" fill="#4C97C0"/>
<path d="M52.412 30.0553C52.102 30.1362 51.1719 30.2982 50.3969 30.4601C48.9631 30.7029 44.9716 33.7388 30.6722 45.5586L24.6656 50.5375L29.0059 55.0306L33.3848 59.5238L39.6239 54.302C51.0169 44.749 53.187 43.6156 60.8599 43.2918L65.2001 43.1299V36.4914V29.8529L59.116 29.8934C55.7446 29.9338 52.722 30.0148 52.412 30.0553Z" fill="#4C97C0"/>
<path d="M12.7881 29.4685C13.0981 29.3875 14.0282 29.2256 14.8032 29.0637C16.237 28.8208 20.2285 25.7849 34.5279 13.9652L40.5344 8.98627L36.1942 4.49314L31.8153 -7.96222e-07L25.5762 5.22175C14.1832 14.7747 12.0131 15.9081 4.34019 16.232L-1.66308e-05 16.3939L-1.71864e-05 23.0324L-1.7742e-05 29.6709L6.08402 29.6304C9.45544 29.5899 12.4781 29.509 12.7881 29.4685Z" fill="#4C97C0"/>
</svg>
