<svg width="548" height="619" viewBox="0 0 548 619" fill="none" xmlns="http://www.w3.org/2000/svg">
<g clip-path="url(#clip0_75_2)">
<path d="M462.961 185.98L286.259 83.713V0L535.52 144.123L462.961 185.98ZM273.779 513.763L97.0761 411.497V206.963L273.779 104.696L450.482 206.963V411.497L273.779 513.763ZM261.741 83.713L85.0382 185.98L12.0379 144.123L261.741 0V83.713ZM72.4482 206.963V411.497L0 453.353V165.659L72.4482 206.963ZM84.5965 432.48L261.299 534.747V618.46L12.0379 474.889L84.5965 432.48ZM285.817 534.747L462.52 432.48L535.52 474.889L285.817 618.46V534.747ZM475.11 411.497V206.963L547.558 165.659V453.905L475.11 411.497Z" fill="#FFDC00"/>
<path d="M363.53 387.137L360.552 411.855H311.117L245.005 304.646L294.738 238.534C289.179 235.953 285.308 233.273 283.124 230.494L286.102 206.372H354.001L356.979 230.494C354.199 233.67 349.037 236.847 341.493 240.023L289.973 303.455L337.026 374.332C349.931 377.111 358.765 381.38 363.53 387.137ZM186.934 206.372H256.62L259.598 231.089C256.421 234.861 250.961 238.237 243.218 241.215V377.31C251.16 380.486 256.62 383.762 259.598 387.137L256.62 411.855H186.934L183.956 387.137C186.537 383.762 191.997 380.486 200.335 377.31V241.215C192.195 238.237 186.736 234.861 183.956 231.089L186.934 206.372Z" fill="white"/>
</g>
<defs>
<clipPath id="clip0_75_2">
<rect width="547.558" height="618.46" fill="white"/>
</clipPath>
</defs>
</svg>
