<svg width="394" height="121" viewBox="0 0 394 121" fill="none" xmlns="http://www.w3.org/2000/svg">
<path d="M94.3331 25.6319C87.2433 27.4422 83.5409 29.993 62.7444 47.2729C49.589 58.2168 40.5298 65.1288 37.2213 66.7745C32.1009 69.3253 32.0222 69.3253 16.5823 69.5722L0.984863 69.9013V83.3961V96.8909H16.9762C41.7902 96.8909 44.5474 95.9034 61.4052 81.5035C93.1515 54.2671 99.0596 51.3049 120.959 51.3049H132.539V37.8924V24.4799L115.445 24.5622C104.81 24.5622 96.7751 24.9736 94.3331 25.6319Z" fill="white"/>
<path d="M106.543 61.0965C105.913 61.261 104.022 61.5902 102.447 61.9193C99.5322 62.413 91.4184 68.5844 62.3505 92.6117L50.1404 102.733L58.9632 111.866L67.8647 121L80.5475 110.385C103.707 90.966 108.119 88.662 123.716 88.0037L132.539 87.6746V74.1798V60.6851L120.171 60.7673C113.318 60.8496 107.173 61.0142 106.543 61.0965Z" fill="white"/>
<path d="M25.9956 59.9039C26.6258 59.7393 28.5164 59.4102 30.0919 59.081C33.0066 58.5873 41.1204 52.4159 70.1883 28.3886L82.3984 18.2676L73.5757 9.1339L64.6741 0.000242522L51.9913 10.615C28.8315 30.0343 24.4201 32.3383 8.8227 32.9966L-9.43419e-05 33.3258L-9.54713e-05 46.8205L-9.66007e-05 60.3153L12.3676 60.233C19.221 60.1507 25.3654 59.9862 25.9956 59.9039Z" fill="white"/>
<path d="M168.415 41.091V76.0001H161.034V41.091H168.415ZM203.686 41.091V76.0001H197.311L182.124 54.0285H181.868V76.0001H174.487V41.091H180.964L196.033 63.0456H196.339V41.091H203.686ZM228.722 51.1308C228.585 49.7558 228 48.6876 226.966 47.9263C225.932 47.1649 224.528 46.7842 222.756 46.7842C221.551 46.7842 220.534 46.9547 219.705 47.2956C218.875 47.6251 218.239 48.0853 217.795 48.6763C217.364 49.2672 217.148 49.9376 217.148 50.6876C217.125 51.3126 217.256 51.8581 217.54 52.324C217.835 52.7899 218.239 53.1933 218.75 53.5342C219.261 53.8638 219.852 54.1535 220.523 54.4035C221.193 54.6422 221.909 54.8467 222.67 55.0172L225.807 55.7672C227.33 56.1081 228.727 56.5626 230 57.1308C231.273 57.699 232.375 58.3978 233.307 59.2274C234.239 60.0569 234.96 61.0342 235.472 62.1592C235.994 63.2842 236.261 64.574 236.273 66.0285C236.261 68.1649 235.716 70.0172 234.636 71.5853C233.568 73.1422 232.023 74.3524 230 75.216C227.989 76.0683 225.563 76.4944 222.722 76.4944C219.903 76.4944 217.449 76.0626 215.358 75.199C213.278 74.3353 211.653 73.0569 210.483 71.3638C209.324 69.6592 208.716 67.5513 208.659 65.0399H215.801C215.881 66.2103 216.216 67.1876 216.807 67.9717C217.409 68.7444 218.21 69.3297 219.21 69.7274C220.222 70.1138 221.364 70.3069 222.636 70.3069C223.886 70.3069 224.972 70.1251 225.892 69.7615C226.824 69.3978 227.545 68.8922 228.057 68.2444C228.568 67.5967 228.824 66.8524 228.824 66.0115C228.824 65.2274 228.591 64.5683 228.125 64.0342C227.67 63.5001 227 63.0456 226.114 62.6706C225.239 62.2956 224.165 61.9547 222.892 61.6478L219.091 60.6933C216.148 59.9774 213.824 58.8581 212.119 57.3353C210.415 55.8126 209.568 53.7615 209.58 51.1819C209.568 49.0683 210.131 47.2217 211.267 45.6422C212.415 44.0626 213.989 42.8297 215.989 41.9433C217.989 41.0569 220.261 40.6138 222.807 40.6138C225.398 40.6138 227.659 41.0569 229.591 41.9433C231.534 42.8297 233.045 44.0626 234.125 45.6422C235.205 47.2217 235.761 49.0513 235.795 51.1308H228.722ZM253.033 76.5115C250.339 76.5115 248.021 75.966 246.078 74.8751C244.146 73.7728 242.658 72.216 241.612 70.2047C240.567 68.1819 240.044 65.7899 240.044 63.0285C240.044 60.3353 240.567 57.9717 241.612 55.9376C242.658 53.9035 244.129 52.3183 246.027 51.1819C247.936 50.0456 250.175 49.4774 252.743 49.4774C254.47 49.4774 256.078 49.7558 257.567 50.3126C259.067 50.8581 260.374 51.6819 261.487 52.7842C262.612 53.8865 263.487 55.2728 264.112 56.9433C264.737 58.6024 265.05 60.5456 265.05 62.7728V64.7672H242.942V60.2672H258.214C258.214 59.2217 257.987 58.2956 257.533 57.4888C257.078 56.6819 256.447 56.0513 255.641 55.5967C254.845 55.1308 253.919 54.8978 252.862 54.8978C251.76 54.8978 250.783 55.1535 249.93 55.6649C249.089 56.1649 248.43 56.841 247.953 57.6933C247.476 58.5342 247.232 59.4717 247.22 60.5058V64.7842C247.22 66.0797 247.459 67.199 247.936 68.1422C248.425 69.0853 249.112 69.8126 249.999 70.324C250.885 70.8353 251.936 71.091 253.152 71.091C253.959 71.091 254.697 70.9774 255.368 70.7501C256.038 70.5228 256.612 70.1819 257.089 69.7274C257.567 69.2728 257.93 68.716 258.18 68.0569L264.896 68.5001C264.555 70.1138 263.857 71.5228 262.8 72.7274C261.754 73.9206 260.402 74.8524 258.743 75.5228C257.095 76.1819 255.192 76.5115 253.033 76.5115ZM269.788 76.0001V49.8183H276.828V54.3865H277.101C277.578 52.7615 278.379 51.5342 279.504 50.7047C280.629 49.8638 281.925 49.4433 283.391 49.4433C283.754 49.4433 284.146 49.466 284.567 49.5115C284.987 49.5569 285.357 49.6194 285.675 49.699V56.1422C285.334 56.0399 284.862 55.949 284.26 55.8694C283.658 55.7899 283.107 55.7501 282.607 55.7501C281.538 55.7501 280.584 55.9831 279.743 56.449C278.913 56.9035 278.254 57.5399 277.766 58.3581C277.288 59.1763 277.05 60.1194 277.05 61.1876V76.0001H269.788ZM314.635 49.8183L305.482 76.0001H297.3L288.146 49.8183H295.817L301.254 68.5513H301.527L306.947 49.8183H314.635ZM318.351 76.0001V49.8183H325.612V76.0001H318.351ZM321.999 46.4433C320.919 46.4433 319.993 46.0853 319.22 45.3694C318.459 44.6422 318.078 43.7728 318.078 42.7615C318.078 41.7615 318.459 40.9035 319.22 40.1876C319.993 39.4603 320.919 39.0967 321.999 39.0967C323.078 39.0967 323.999 39.4603 324.76 40.1876C325.533 40.9035 325.919 41.7615 325.919 42.7615C325.919 43.7728 325.533 44.6422 324.76 45.3694C323.999 46.0853 323.078 46.4433 321.999 46.4433ZM343.259 76.5115C340.577 76.5115 338.27 75.9433 336.338 74.8069C334.418 73.6592 332.94 72.0683 331.906 70.0342C330.884 68.0001 330.372 65.6592 330.372 63.0115C330.372 60.3297 330.889 57.9774 331.923 55.9547C332.969 53.9206 334.452 52.3353 336.372 51.199C338.293 50.0513 340.577 49.4774 343.224 49.4774C345.509 49.4774 347.509 49.8922 349.224 50.7217C350.94 51.5513 352.298 52.716 353.298 54.216C354.298 55.716 354.849 57.4774 354.952 59.5001H348.099C347.906 58.1933 347.395 57.1422 346.565 56.3467C345.747 55.5399 344.673 55.1365 343.344 55.1365C342.219 55.1365 341.236 55.4433 340.395 56.0569C339.565 56.6592 338.918 57.5399 338.452 58.699C337.986 59.8581 337.753 61.2615 337.753 62.9092C337.753 64.5797 337.98 66.0001 338.435 67.1706C338.901 68.341 339.554 69.2331 340.395 69.8467C341.236 70.4603 342.219 70.7672 343.344 70.7672C344.173 70.7672 344.918 70.5967 345.577 70.2558C346.247 69.9149 346.798 69.4206 347.23 68.7728C347.673 68.1138 347.963 67.324 348.099 66.4035H354.952C354.838 68.4035 354.293 70.1649 353.315 71.6876C352.349 73.199 351.014 74.3808 349.31 75.2331C347.605 76.0853 345.588 76.5115 343.259 76.5115ZM371.533 76.5115C368.839 76.5115 366.521 75.966 364.578 74.8751C362.646 73.7728 361.158 72.216 360.112 70.2047C359.067 68.1819 358.544 65.7899 358.544 63.0285C358.544 60.3353 359.067 57.9717 360.112 55.9376C361.158 53.9035 362.629 52.3183 364.527 51.1819C366.436 50.0456 368.675 49.4774 371.243 49.4774C372.97 49.4774 374.578 49.7558 376.067 50.3126C377.567 50.8581 378.874 51.6819 379.987 52.7842C381.112 53.8865 381.987 55.2728 382.612 56.9433C383.237 58.6024 383.55 60.5456 383.55 62.7728V64.7672H361.442V60.2672H376.714C376.714 59.2217 376.487 58.2956 376.033 57.4888C375.578 56.6819 374.947 56.0513 374.141 55.5967C373.345 55.1308 372.419 54.8978 371.362 54.8978C370.26 54.8978 369.283 55.1535 368.43 55.6649C367.589 56.1649 366.93 56.841 366.453 57.6933C365.976 58.5342 365.732 59.4717 365.72 60.5058V64.7842C365.72 66.0797 365.959 67.199 366.436 68.1422C366.925 69.0853 367.612 69.8126 368.499 70.324C369.385 70.8353 370.436 71.091 371.652 71.091C372.459 71.091 373.197 70.9774 373.868 70.7501C374.538 70.5228 375.112 70.1819 375.589 69.7274C376.067 69.2728 376.43 68.716 376.68 68.0569L383.396 68.5001C383.055 70.1138 382.357 71.5228 381.3 72.7274C380.254 73.9206 378.902 74.8524 377.243 75.5228C375.595 76.1819 373.692 76.5115 371.533 76.5115Z" fill="white"/>
</svg>
