<svg width="416" height="121" viewBox="0 0 416 121" fill="none" xmlns="http://www.w3.org/2000/svg">
<path d="M94.3331 25.6318C87.2433 27.442 83.5409 29.9929 62.7444 47.2728C49.589 58.2167 40.5298 65.1287 37.2213 66.7744C32.1009 69.3252 32.0222 69.3252 16.5823 69.5721L0.984863 69.9012V83.396V96.8907H16.9762C41.7902 96.8907 44.5474 95.9033 61.4052 81.5034C93.1515 54.267 99.0596 51.3047 120.959 51.3047H132.539V37.8923V24.4798L115.445 24.562C104.81 24.562 96.7751 24.9735 94.3331 25.6318Z" fill="white"/>
<path d="M106.543 61.0964C105.913 61.2609 104.022 61.5901 102.447 61.9192C99.5322 62.4129 91.4184 68.5843 62.3505 92.6116L50.1404 102.733L58.9632 111.866L67.8647 121L80.5475 110.385C103.707 90.9659 108.119 88.6619 123.716 88.0036L132.539 87.6745V74.1797V60.6849L120.171 60.7672C113.318 60.8495 107.173 61.0141 106.543 61.0964Z" fill="white"/>
<path d="M25.9956 59.9037C26.6258 59.7392 28.5164 59.41 30.0919 59.0809C33.0066 58.5872 41.1204 52.4158 70.1883 28.3885L82.3984 18.2674L73.5757 9.13375L64.6741 8.99342e-05L51.9913 10.6149C28.8315 30.0342 24.4201 32.3382 8.8227 32.9965L-9.43419e-05 33.3256L-9.54713e-05 46.8204L-9.66007e-05 60.3152L12.3676 60.2329C19.221 60.1506 25.3654 59.986 25.9956 59.9037Z" fill="white"/>
<path d="M165.415 41.0909V76H158.034V41.0909H165.415ZM200.686 41.0909V76H194.311L179.124 54.0284H178.868V76H171.487V41.0909H177.964L193.033 63.0455H193.339V41.0909H200.686ZM225.722 51.1307C225.585 49.7557 225 48.6875 223.966 47.9261C222.932 47.1648 221.528 46.7841 219.756 46.7841C218.551 46.7841 217.534 46.9545 216.705 47.2955C215.875 47.625 215.239 48.0852 214.795 48.6761C214.364 49.267 214.148 49.9375 214.148 50.6875C214.125 51.3125 214.256 51.858 214.54 52.3239C214.835 52.7898 215.239 53.1932 215.75 53.5341C216.261 53.8636 216.852 54.1534 217.523 54.4034C218.193 54.642 218.909 54.8466 219.67 55.017L222.807 55.767C224.33 56.108 225.727 56.5625 227 57.1307C228.273 57.6989 229.375 58.3977 230.307 59.2273C231.239 60.0568 231.96 61.0341 232.472 62.1591C232.994 63.2841 233.261 64.5739 233.273 66.0284C233.261 68.1648 232.716 70.017 231.636 71.5852C230.568 73.142 229.023 74.3523 227 75.2159C224.989 76.0682 222.563 76.4943 219.722 76.4943C216.903 76.4943 214.449 76.0625 212.358 75.1989C210.278 74.3352 208.653 73.0568 207.483 71.3636C206.324 69.6591 205.716 67.5511 205.659 65.0398H212.801C212.881 66.2102 213.216 67.1875 213.807 67.9716C214.409 68.7443 215.21 69.3295 216.21 69.7273C217.222 70.1136 218.364 70.3068 219.636 70.3068C220.886 70.3068 221.972 70.125 222.892 69.7614C223.824 69.3977 224.545 68.892 225.057 68.2443C225.568 67.5966 225.824 66.8523 225.824 66.0114C225.824 65.2273 225.591 64.5682 225.125 64.0341C224.67 63.5 224 63.0455 223.114 62.6705C222.239 62.2955 221.165 61.9545 219.892 61.6477L216.091 60.6932C213.148 59.9773 210.824 58.858 209.119 57.3352C207.415 55.8125 206.568 53.7614 206.58 51.1818C206.568 49.0682 207.131 47.2216 208.267 45.642C209.415 44.0625 210.989 42.8295 212.989 41.9432C214.989 41.0568 217.261 40.6136 219.807 40.6136C222.398 40.6136 224.659 41.0568 226.591 41.9432C228.534 42.8295 230.045 44.0625 231.125 45.642C232.205 47.2216 232.761 49.0511 232.795 51.1307H225.722ZM250.033 76.5114C247.339 76.5114 245.021 75.9659 243.078 74.875C241.146 73.7727 239.658 72.2159 238.612 70.2045C237.567 68.1818 237.044 65.7898 237.044 63.0284C237.044 60.3352 237.567 57.9716 238.612 55.9375C239.658 53.9034 241.129 52.3182 243.027 51.1818C244.936 50.0455 247.175 49.4773 249.743 49.4773C251.47 49.4773 253.078 49.7557 254.567 50.3125C256.067 50.858 257.374 51.6818 258.487 52.7841C259.612 53.8864 260.487 55.2727 261.112 56.9432C261.737 58.6023 262.05 60.5455 262.05 62.7727V64.767H239.942V60.267H255.214C255.214 59.2216 254.987 58.2955 254.533 57.4886C254.078 56.6818 253.447 56.0511 252.641 55.5966C251.845 55.1307 250.919 54.8977 249.862 54.8977C248.76 54.8977 247.783 55.1534 246.93 55.6648C246.089 56.1648 245.43 56.8409 244.953 57.6932C244.476 58.5341 244.232 59.4716 244.22 60.5057V64.7841C244.22 66.0795 244.459 67.1989 244.936 68.142C245.425 69.0852 246.112 69.8125 246.999 70.3239C247.885 70.8352 248.936 71.0909 250.152 71.0909C250.959 71.0909 251.697 70.9773 252.368 70.75C253.038 70.5227 253.612 70.1818 254.089 69.7273C254.567 69.2727 254.93 68.7159 255.18 68.0568L261.896 68.5C261.555 70.1136 260.857 71.5227 259.8 72.7273C258.754 73.9205 257.402 74.8523 255.743 75.5227C254.095 76.1818 252.192 76.5114 250.033 76.5114ZM266.788 76V49.8182H273.828V54.3864H274.101C274.578 52.7614 275.379 51.5341 276.504 50.7045C277.629 49.8636 278.925 49.4432 280.391 49.4432C280.754 49.4432 281.146 49.4659 281.567 49.5114C281.987 49.5568 282.357 49.6193 282.675 49.6989V56.142C282.334 56.0398 281.862 55.9489 281.26 55.8693C280.658 55.7898 280.107 55.75 279.607 55.75C278.538 55.75 277.584 55.983 276.743 56.4489C275.913 56.9034 275.254 57.5398 274.766 58.358C274.288 59.1761 274.05 60.1193 274.05 61.1875V76H266.788ZM311.635 49.8182L302.482 76H294.3L285.146 49.8182H292.817L298.254 68.5511H298.527L303.947 49.8182H311.635ZM315.351 76V49.8182H322.612V76H315.351ZM318.999 46.4432C317.919 46.4432 316.993 46.0852 316.22 45.3693C315.459 44.642 315.078 43.7727 315.078 42.7614C315.078 41.7614 315.459 40.9034 316.22 40.1875C316.993 39.4602 317.919 39.0966 318.999 39.0966C320.078 39.0966 320.999 39.4602 321.76 40.1875C322.533 40.9034 322.919 41.7614 322.919 42.7614C322.919 43.7727 322.533 44.642 321.76 45.3693C320.999 46.0852 320.078 46.4432 318.999 46.4432ZM340.259 76.5114C337.577 76.5114 335.27 75.9432 333.338 74.8068C331.418 73.6591 329.94 72.0682 328.906 70.0341C327.884 68 327.372 65.6591 327.372 63.0114C327.372 60.3295 327.889 57.9773 328.923 55.9545C329.969 53.9205 331.452 52.3352 333.372 51.1989C335.293 50.0511 337.577 49.4773 340.224 49.4773C342.509 49.4773 344.509 49.892 346.224 50.7216C347.94 51.5511 349.298 52.7159 350.298 54.2159C351.298 55.7159 351.849 57.4773 351.952 59.5H345.099C344.906 58.1932 344.395 57.142 343.565 56.3466C342.747 55.5398 341.673 55.1364 340.344 55.1364C339.219 55.1364 338.236 55.4432 337.395 56.0568C336.565 56.6591 335.918 57.5398 335.452 58.6989C334.986 59.858 334.753 61.2614 334.753 62.9091C334.753 64.5795 334.98 66 335.435 67.1705C335.901 68.3409 336.554 69.233 337.395 69.8466C338.236 70.4602 339.219 70.767 340.344 70.767C341.173 70.767 341.918 70.5966 342.577 70.2557C343.247 69.9148 343.798 69.4205 344.23 68.7727C344.673 68.1136 344.963 67.3239 345.099 66.4034H351.952C351.838 68.4034 351.293 70.1648 350.315 71.6875C349.349 73.1989 348.014 74.3807 346.31 75.233C344.605 76.0852 342.588 76.5114 340.259 76.5114ZM368.533 76.5114C365.839 76.5114 363.521 75.9659 361.578 74.875C359.646 73.7727 358.158 72.2159 357.112 70.2045C356.067 68.1818 355.544 65.7898 355.544 63.0284C355.544 60.3352 356.067 57.9716 357.112 55.9375C358.158 53.9034 359.629 52.3182 361.527 51.1818C363.436 50.0455 365.675 49.4773 368.243 49.4773C369.97 49.4773 371.578 49.7557 373.067 50.3125C374.567 50.858 375.874 51.6818 376.987 52.7841C378.112 53.8864 378.987 55.2727 379.612 56.9432C380.237 58.6023 380.55 60.5455 380.55 62.7727V64.767H358.442V60.267H373.714C373.714 59.2216 373.487 58.2955 373.033 57.4886C372.578 56.6818 371.947 56.0511 371.141 55.5966C370.345 55.1307 369.419 54.8977 368.362 54.8977C367.26 54.8977 366.283 55.1534 365.43 55.6648C364.589 56.1648 363.93 56.8409 363.453 57.6932C362.976 58.5341 362.732 59.4716 362.72 60.5057V64.7841C362.72 66.0795 362.959 67.1989 363.436 68.142C363.925 69.0852 364.612 69.8125 365.499 70.3239C366.385 70.8352 367.436 71.0909 368.652 71.0909C369.459 71.0909 370.197 70.9773 370.868 70.75C371.538 70.5227 372.112 70.1818 372.589 69.7273C373.067 69.2727 373.43 68.7159 373.68 68.0568L380.396 68.5C380.055 70.1136 379.357 71.5227 378.3 72.7273C377.254 73.9205 375.902 74.8523 374.243 75.5227C372.595 76.1818 370.692 76.5114 368.533 76.5114ZM407.072 57.2841L400.425 57.6932C400.311 57.125 400.067 56.6136 399.692 56.1591C399.317 55.6932 398.822 55.3239 398.209 55.0511C397.607 54.767 396.885 54.625 396.044 54.625C394.919 54.625 393.97 54.8636 393.197 55.3409C392.425 55.8068 392.038 56.4318 392.038 57.2159C392.038 57.8409 392.288 58.3693 392.788 58.8011C393.288 59.233 394.146 59.5795 395.362 59.8409L400.101 60.7955C402.646 61.3182 404.544 62.1591 405.794 63.3182C407.044 64.4773 407.669 66 407.669 67.8864C407.669 69.6023 407.163 71.108 406.152 72.4034C405.152 73.6989 403.777 74.7102 402.027 75.4375C400.288 76.1534 398.283 76.5114 396.01 76.5114C392.544 76.5114 389.783 75.7898 387.726 74.3466C385.68 72.892 384.482 70.9148 384.129 68.4148L391.271 68.0398C391.487 69.0966 392.01 69.9034 392.839 70.4602C393.669 71.0057 394.732 71.2784 396.027 71.2784C397.3 71.2784 398.322 71.0341 399.095 70.5455C399.879 70.0455 400.277 69.4034 400.288 68.6193C400.277 67.9602 399.999 67.4205 399.453 67C398.908 66.5682 398.067 66.2386 396.93 66.0114L392.396 65.108C389.839 64.5966 387.936 63.7102 386.686 62.4489C385.447 61.1875 384.828 59.5795 384.828 57.625C384.828 55.9432 385.283 54.4943 386.192 53.2784C387.112 52.0625 388.402 51.125 390.061 50.4659C391.732 49.8068 393.686 49.4773 395.925 49.4773C399.232 49.4773 401.834 50.1761 403.732 51.5739C405.641 52.9716 406.754 54.875 407.072 57.2841Z" fill="white"/>
</svg>
