<svg width="366" height="105" viewBox="0 0 366 105" fill="none" xmlns="http://www.w3.org/2000/svg">
<g clip-path="url(#clip0_8_1025)">
<path d="M222.27 30.0488H223.788V17.748H222.27V30.0488Z" fill="white"/>
<path d="M225.796 17.7506H227.761L231.827 28.0166H231.862V17.7506H233.376V30.0514H231.293L227.345 20.0918H227.31V30.0514H225.796V17.7506Z" fill="white"/>
<mask id="mask0_8_1025" style="mask-type:luminance" maskUnits="userSpaceOnUse" x="-1413" y="-431" width="1862" height="3598">
<path d="M-1412.15 3166.98H448.841V-430.248H-1412.15V3166.98Z" fill="white"/>
</mask>
<g mask="url(#mask0_8_1025)">
<path d="M240.64 20.9372C240.64 19.6463 240.176 18.7492 238.727 18.7492C237.454 18.7492 236.692 19.4363 236.692 20.749C236.692 24.2104 242.5 22.145 242.5 26.6391C242.5 29.4834 240.417 30.293 238.675 30.293C235.799 30.293 234.955 28.8095 234.955 26.1927H236.469C236.469 27.5711 236.556 29.0502 238.78 29.0502C239.983 29.0502 240.916 28.1881 240.916 26.8797C240.916 23.4009 235.108 25.4182 235.108 20.9022C235.108 19.7645 235.589 17.5109 238.71 17.5109C241.051 17.5109 242.119 18.6792 242.154 20.9372H240.64Z" fill="white"/>
</g>
<path d="M247.838 30.0505H246.323V19.0932H243.238V17.7498H250.941V19.0932H247.838V30.0505Z" fill="white"/>
<path d="M252.232 30.0488H253.747V17.748H252.232V30.0488Z" fill="white"/>
<path d="M259.623 30.0505H258.109V19.0932H255.023V17.7498H262.722V19.0932H259.623V30.0505Z" fill="white"/>
<mask id="mask1_8_1025" style="mask-type:luminance" maskUnits="userSpaceOnUse" x="-1413" y="-431" width="1862" height="3598">
<path d="M-1412.15 3166.98H448.841V-430.248H-1412.15V3166.98Z" fill="white"/>
</mask>
<g mask="url(#mask1_8_1025)">
<path d="M263.949 17.751H265.464V26.3979C265.464 28.2095 266.05 29.0541 267.551 29.0541C269.171 29.0541 269.652 28.122 269.652 26.3979V17.751H271.171V26.3979C271.171 28.7609 269.963 30.2925 267.551 30.2925C265.087 30.2925 263.949 28.9316 263.949 26.3979V17.751Z" fill="white"/>
</g>
<path d="M276.995 30.0505H275.48V19.0932H272.395V17.7498H280.093V19.0932H276.995V30.0505Z" fill="white"/>
<path d="M285.37 17.7506H287.335L291.401 28.0166H291.436V17.7506H292.95V30.0514H290.867L286.919 20.0918H286.884V30.0514H285.37V17.7506Z" fill="white"/>
<path d="M297.669 17.7506H299.7L303.009 30.0514H301.424L300.545 26.6732H296.619L295.704 30.0514H294.12L297.669 17.7506ZM296.93 25.4348H300.238L298.667 19.4923H298.632L296.93 25.4348Z" fill="white"/>
<path d="M306.85 30.0505H305.336V19.0932H302.25V17.7498H309.954V19.0932H306.85V30.0505Z" fill="white"/>
<path d="M311.245 30.0488H312.759V17.748H311.245V30.0488Z" fill="white"/>
<mask id="mask2_8_1025" style="mask-type:luminance" maskUnits="userSpaceOnUse" x="-1413" y="-431" width="1862" height="3598">
<path d="M-1412.15 3166.98H448.841V-430.248H-1412.15V3166.98Z" fill="white"/>
</mask>
<g mask="url(#mask2_8_1025)">
<path d="M322.477 23.9007C322.477 27.0032 321.908 30.2939 318.516 30.2939C315.119 30.2939 314.55 27.0032 314.55 23.9007C314.55 20.7982 315.119 17.5075 318.516 17.5075C321.908 17.5075 322.477 20.7982 322.477 23.9007ZM316.135 23.9007C316.135 26.7451 316.41 29.0512 318.516 29.0512C320.616 29.0512 320.892 26.7451 320.892 23.9007C320.892 21.0563 320.616 18.7502 318.516 18.7502C316.41 18.7502 316.135 21.0563 316.135 23.9007Z" fill="white"/>
</g>
<path d="M324.274 17.7506H326.24L330.306 28.0166H330.341V17.7506H331.855V30.0514H329.772L325.824 20.0918H325.789V30.0514H324.274V17.7506Z" fill="white"/>
<path d="M336.574 17.7506H338.605L341.914 30.0514H340.329L339.45 26.6732H335.524L334.609 30.0514H333.024L336.574 17.7506ZM335.834 25.4348H339.143L337.572 19.4923H337.537L335.834 25.4348Z" fill="white"/>
<path d="M343.075 17.7506H344.589V28.708H349.587V30.0514H343.075V17.7506Z" fill="white"/>
<mask id="mask3_8_1025" style="mask-type:luminance" maskUnits="userSpaceOnUse" x="-1413" y="-431" width="1862" height="3598">
<path d="M-1412.15 3166.98H448.841V-430.248H-1412.15V3166.98Z" fill="white"/>
</mask>
<g mask="url(#mask3_8_1025)">
<path d="M222.425 36.8953H225.716C229.541 36.8953 230.023 39.6521 230.023 43.0435C230.023 46.146 229.248 49.196 225.869 49.196H222.425V36.8953ZM223.939 47.9533H225.528C228.145 47.9533 228.438 45.2665 228.438 43.061C228.438 40.6848 228.285 38.1337 225.528 38.1337H223.939V47.9533Z" fill="white"/>
</g>
<path d="M231.797 36.8955H238.156V38.2389H233.311V42.0985H237.881V43.4419H233.311V47.8529H238.362V49.1963H231.797V36.8955Z" fill="white"/>
<mask id="mask4_8_1025" style="mask-type:luminance" maskUnits="userSpaceOnUse" x="-1413" y="-431" width="1862" height="3598">
<path d="M-1412.15 3166.98H448.841V-430.248H-1412.15V3166.98Z" fill="white"/>
</mask>
<g mask="url(#mask4_8_1025)">
<path d="M245.062 40.082C245.062 38.7911 244.598 37.894 243.149 37.894C241.876 37.894 241.118 38.581 241.118 39.8938C241.118 43.3552 246.922 41.2897 246.922 45.7838C246.922 48.6282 244.839 49.4377 243.097 49.4377C240.221 49.4377 239.376 47.9543 239.376 45.3375H240.891C240.891 46.7159 240.978 48.195 243.202 48.195C244.405 48.195 245.338 47.3329 245.338 46.0245C245.338 42.5456 239.53 44.5629 239.53 40.047C239.53 38.9092 240.015 36.6556 243.132 36.6556C245.473 36.6556 246.546 37.824 246.576 40.082H245.062Z" fill="white"/>
<path d="M257.815 40.082C257.815 38.7911 257.351 37.894 255.902 37.894C254.629 37.894 253.867 38.581 253.867 39.8938C253.867 43.3552 259.675 41.2897 259.675 45.7838C259.675 48.6282 257.592 49.4377 255.85 49.4377C252.974 49.4377 252.129 47.9543 252.129 45.3375H253.644C253.644 46.7159 253.731 48.195 255.955 48.195C257.158 48.195 258.091 47.3329 258.091 46.0245C258.091 42.5456 252.283 44.5629 252.283 40.047C252.283 38.9092 252.764 36.6556 255.885 36.6556C258.226 36.6556 259.294 37.824 259.329 40.082H257.815Z" fill="white"/>
<path d="M268.725 44.9747C268.589 47.2983 267.674 49.4381 264.987 49.4381C261.485 49.4381 261.021 46.1474 261.021 43.0449C261.021 39.9423 261.59 36.656 264.987 36.656C267.499 36.656 268.554 38.065 268.62 40.4806H267.035C267 39.0846 266.554 37.8944 264.987 37.8944C262.882 37.8944 262.606 40.2049 262.606 43.0449C262.606 45.8892 262.882 48.1953 264.987 48.1953C266.829 48.1953 267.088 46.4712 267.14 44.9747H268.725Z" fill="white"/>
</g>
<path d="M270.173 49.198H271.687V36.8927H270.173V49.198Z" fill="white"/>
<path d="M273.699 36.8955H280.059V38.2389H275.214V42.0985H279.783V43.4419H275.214V47.8529H280.264V49.1963H273.699V36.8955Z" fill="white"/>
<path d="M281.689 36.8955H283.654L287.72 47.1615H287.755V36.8955H289.27V49.1963H287.186L283.238 39.2367H283.203V49.1963H281.689V36.8955Z" fill="white"/>
<mask id="mask5_8_1025" style="mask-type:luminance" maskUnits="userSpaceOnUse" x="-1413" y="-431" width="1862" height="3598">
<path d="M-1412.15 3166.98H448.841V-430.248H-1412.15V3166.98Z" fill="white"/>
</mask>
<g mask="url(#mask5_8_1025)">
<path d="M298.769 44.9748C298.633 47.2984 297.719 49.4382 295.031 49.4382C291.534 49.4382 291.066 46.1475 291.066 43.045C291.066 39.9424 291.635 36.6561 295.031 36.6561C297.548 36.6561 298.598 38.0652 298.668 40.4807H297.08C297.045 39.0848 296.598 37.8945 295.031 37.8945C292.93 37.8945 292.655 40.205 292.655 43.045C292.655 45.8893 292.93 48.1955 295.031 48.1955C296.874 48.1955 297.132 46.4713 297.185 44.9748H298.769Z" fill="white"/>
</g>
<path d="M300.227 36.8955H306.586V38.2389H301.741V42.0985H306.311V43.4419H301.741V47.8529H306.792V49.1963H300.227V36.8955Z" fill="white"/>
<mask id="mask6_8_1025" style="mask-type:luminance" maskUnits="userSpaceOnUse" x="-1413" y="-431" width="1862" height="3598">
<path d="M-1412.15 3166.98H448.841V-430.248H-1412.15V3166.98Z" fill="white"/>
</mask>
<g mask="url(#mask6_8_1025)">
<path d="M313.493 40.082C313.493 38.7911 313.029 37.894 311.58 37.894C310.306 37.894 309.545 38.581 309.545 39.8938C309.545 43.3552 315.353 41.2897 315.353 45.7838C315.353 48.6282 313.269 49.4377 311.527 49.4377C308.652 49.4377 307.807 47.9543 307.807 45.3375H309.321C309.321 46.7159 309.409 48.195 311.632 48.195C312.836 48.195 313.768 47.3329 313.768 46.0245C313.768 42.5456 307.96 44.5629 307.96 40.047C307.96 38.9092 308.442 36.6556 311.562 36.6556C313.904 36.6556 314.976 37.824 315.007 40.082H313.493Z" fill="white"/>
</g>
<path d="M224.682 56.0402H226.713L230.022 68.3409H228.437L227.557 64.9627H223.631L222.717 68.3409H221.132L224.682 56.0402ZM223.942 63.7243H227.251L225.68 57.7818H225.645L223.942 63.7243Z" fill="white"/>
<mask id="mask7_8_1025" style="mask-type:luminance" maskUnits="userSpaceOnUse" x="-1413" y="-431" width="1862" height="3598">
<path d="M-1412.15 3166.98H448.841V-430.248H-1412.15V3166.98Z" fill="white"/>
</mask>
<g mask="url(#mask7_8_1025)">
<path d="M231.183 56.0403H234.317C235.389 56.0403 238.129 56.0403 238.129 59.5717C238.129 61.8647 236.663 63.1381 234.579 63.1381H232.697V68.3411H231.183V56.0403ZM232.697 61.8953H234.509C235.612 61.8953 236.54 61.1383 236.54 59.5017C236.54 58.1583 235.906 57.2787 234.404 57.2787H232.697V61.8953Z" fill="white"/>
<path d="M239.518 56.0403H242.656C243.724 56.0403 246.464 56.0403 246.464 59.5717C246.464 61.8647 244.998 63.1381 242.914 63.1381H241.032V68.3411H239.518V56.0403ZM241.032 61.8953H242.844C243.947 61.8953 244.875 61.1383 244.875 59.5017C244.875 58.1583 244.241 57.2787 242.739 57.2787H241.032V61.8953Z" fill="white"/>
</g>
<path d="M247.854 56.0402H249.368V66.9975H254.366V68.3409H247.854V56.0402Z" fill="white"/>
<path d="M255.66 68.3427H257.178V56.0419H255.66V68.3427Z" fill="white"/>
<mask id="mask8_8_1025" style="mask-type:luminance" maskUnits="userSpaceOnUse" x="-1413" y="-431" width="1862" height="3598">
<path d="M-1412.15 3166.98H448.841V-430.248H-1412.15V3166.98Z" fill="white"/>
</mask>
<g mask="url(#mask8_8_1025)">
<path d="M265.048 67.9606C264.514 68.3588 263.809 68.582 262.93 68.582C259.533 68.582 258.964 65.2912 258.964 62.1887C258.964 59.0905 259.533 55.7998 262.93 55.7998C266.322 55.7998 266.891 59.0905 266.891 62.1887C266.891 63.9653 266.702 65.8076 265.893 67.046L267.131 68.1837L266.287 69.0808L265.048 67.9606ZM262.86 65.9783L263.704 65.0506L264.842 66.0833C265.219 65.1512 265.306 63.7597 265.306 62.1887C265.306 59.3487 265.031 57.0382 262.93 57.0382C260.829 57.0382 260.553 59.3487 260.553 62.1887C260.553 65.0331 260.829 67.3392 262.93 67.3392C263.376 67.3392 263.757 67.2385 264.05 67.046L262.86 65.9783Z" fill="white"/>
<path d="M268.575 56.0403H270.09V64.6872C270.09 66.4988 270.676 67.3434 272.177 67.3434C273.797 67.3434 274.278 66.4113 274.278 64.6872V56.0403H275.792V64.6872C275.792 67.0502 274.589 68.5818 272.177 68.5818C269.713 68.5818 268.575 67.2209 268.575 64.6872V56.0403Z" fill="white"/>
</g>
<path d="M277.743 56.0402H284.103V57.3836H279.258V61.2432H283.827V62.5866H279.258V66.9975H284.308V68.3409H277.743V56.0402ZM281.293 52.9201H282.982L281.122 55.3663H280.085L281.293 52.9201Z" fill="white"/>
<path d="M285.733 56.0402H292.092V57.3836H287.247V61.2432H291.817V62.5866H287.247V66.9975H292.298V68.3409H285.733V56.0402Z" fill="white"/>
<mask id="mask9_8_1025" style="mask-type:luminance" maskUnits="userSpaceOnUse" x="-1413" y="-431" width="1862" height="3598">
<path d="M-1412.15 3166.98H448.841V-430.248H-1412.15V3166.98Z" fill="white"/>
</mask>
<g mask="url(#mask9_8_1025)">
<path d="M298.997 59.2268C298.997 57.9359 298.533 57.0388 297.085 57.0388C295.811 57.0388 295.054 57.7258 295.054 59.0386C295.054 62.5 300.858 60.4345 300.858 64.9286C300.858 67.773 298.774 68.5825 297.032 68.5825C294.157 68.5825 293.312 67.0991 293.312 64.4823H294.826C294.826 65.8607 294.914 67.3398 297.137 67.3398C298.345 67.3398 299.273 66.4777 299.273 65.1693C299.273 61.6904 293.465 63.7077 293.465 59.1918C293.465 58.054 293.951 55.8004 297.067 55.8004C299.409 55.8004 300.481 56.9688 300.512 59.2268H298.997Z" fill="white"/>
</g>
<path d="M222.166 75.1849H225.059V85.1402H229.248V87.4857H222.166V75.1849Z" fill="white"/>
<path d="M231.831 82.6442L228.71 75.1832H231.918L233.297 79.7517H233.327L234.741 75.1832H237.844L234.724 82.6442V87.4839H231.831V82.6442Z" fill="white"/>
<mask id="mask10_8_1025" style="mask-type:luminance" maskUnits="userSpaceOnUse" x="-1413" y="-431" width="1862" height="3598">
<path d="M-1412.15 3166.98H448.841V-430.248H-1412.15V3166.98Z" fill="white"/>
</mask>
<g mask="url(#mask10_8_1025)">
<path d="M242.939 87.7258C239.131 87.7258 238.614 85.2447 238.614 81.3326C238.614 77.4249 239.131 74.9437 242.939 74.9437C247.04 74.9437 247.263 77.9237 247.263 81.3326C247.263 84.7458 247.04 87.7258 242.939 87.7258ZM242.921 85.796C244.094 85.796 244.265 84.7108 244.265 81.3326C244.265 77.9587 244.094 76.8735 242.921 76.8735C241.783 76.8735 241.612 77.9587 241.612 81.3326C241.612 84.7108 241.783 85.796 242.921 85.796Z" fill="white"/>
</g>
<path d="M249.207 75.1849H252.533L254.909 83.1797H254.944V75.1849H257.632V87.4857H254.358L251.824 79.0095H251.793V87.4857H249.207V75.1849Z" fill="white"/>
<path d="M208.452 87.4917H209.817V17.7437H208.452V87.4917Z" fill="white"/>
<path d="M34.6638 87.5137H16.4126V17.7787H34.6638V87.5137Z" fill="white"/>
<path d="M60.0778 17.7796L71.8557 60.7513H72.0527V17.7796H89.122V87.5145H69.1071L56.9397 44.4465H56.7427V87.5145H39.6689V17.7796H60.0778Z" fill="white"/>
<mask id="mask11_8_1025" style="mask-type:luminance" maskUnits="userSpaceOnUse" x="-1413" y="-431" width="1862" height="3598">
<path d="M-1412.15 3166.98H448.841V-430.248H-1412.15V3166.98Z" fill="white"/>
</mask>
<g mask="url(#mask11_8_1025)">
<path d="M122.1 36.2369C122.1 34.1539 121.667 32.3773 120.818 30.9157C119.969 29.4454 118.66 28.719 116.896 28.719C114.931 28.719 113.491 29.3535 112.581 30.6225C111.657 31.8915 111.206 33.305 111.206 34.8716C111.206 37.147 111.942 38.9587 113.412 40.2933C114.883 41.628 116.73 42.7789 118.953 43.7547C121.181 44.7349 123.566 45.7239 126.122 46.7347C128.67 47.7499 131.059 49.0627 133.283 50.695C135.506 52.3228 137.358 54.4539 138.828 57.0882C140.299 59.7269 141.034 63.162 141.034 67.3935C141.034 74.8195 138.911 80.2063 134.657 83.5582C130.403 86.919 124.254 88.5906 116.209 88.5906C112.414 88.5906 109.062 88.2755 106.147 87.6629C103.241 87.0415 100.781 85.9694 98.7896 84.4378C96.7938 82.9106 95.2707 80.9064 94.229 78.4253C93.1829 75.9529 92.6621 72.8941 92.6621 69.2489V66.8028H110.322V68.47C110.322 71.4675 110.878 73.5636 111.986 74.767C113.102 75.9791 114.537 76.5786 116.305 76.5786C118.205 76.5786 119.654 75.9222 120.673 74.6226C121.684 73.3229 122.197 71.7301 122.197 69.8353C122.197 67.5642 121.488 65.7526 120.083 64.4223C118.673 63.0832 116.909 61.9411 114.787 60.9959C112.66 60.0595 110.353 59.0924 107.871 58.1165C105.377 57.1407 103.07 55.8717 100.947 54.3095C98.8202 52.7429 97.0564 50.695 95.6514 48.1482C94.2377 45.6189 93.5375 42.2931 93.5375 38.1929C93.5375 31.0951 95.437 25.6908 99.2316 21.9757C103.026 18.2692 108.782 16.4095 116.502 16.4095C124.481 16.4095 130.254 18.1205 133.821 21.5381C137.388 24.9557 139.17 30.4125 139.17 37.8997H122.1V36.2369Z" fill="white"/>
</g>
<path d="M179.012 17.7765L196.085 87.5158H176.661L174.792 75.3069H160.27L158.401 87.5158H139.266L156.051 17.7765H179.012ZM167.435 32.0377L162.428 61.6278H172.635L167.623 32.0377H167.435Z" fill="white"/>
<path d="M183.727 17.7459H196.091V70.1128L183.727 17.7459Z" fill="white"/>
</g>
<defs>
<clipPath id="clip0_8_1025">
<rect width="366" height="105" fill="white"/>
</clipPath>
</defs>
</svg>
